{"title":"Shaft.(2000).h263.1080p[)(]DD+ 5.1-(FR).mkv","uid":13573430,"size":13041024912,"categoryP":"video","categoryS":"movies","magnet":"?xt=urn:btih:de6f6fddca2f0466260a54625c694bb26b35d510&amp;dn=Shaft.%282000%29.h263.1080p%5B%29%28%5DDD%2B+5.1-%28FR%29.mkv&amp;tr=udp%3A%2F%2Ftracker.leechers-paradise.org%3A6969&amp;tr=udp%3A%2F%2Fzer0day.ch%3A1337&amp;tr=udp%3A%2F%2Fopen.demonii.com%3A1337&amp;tr=udp%3A%2F%2Ftracker.coppersurfer.tk%3A6969&amp;tr=udp%3A%2F%2Fexodus.desync.com%3A6969","seeders":0,"leechers":0,"uploader":"Tyr3ll","files":1,"time":1455684817,"description":"Shaft.(2000).h263.1080p[)(]DD+ 5.1-(FR).mkv\r\n\r\n1h 39min  | Action, Crime, Thriller | 16 June 2000 (USA)\r\n\r\nDirector: John Singleton  \r\n\r\nWriters: Ernest Tidyman (novel),  John Singleton (story) \r\n\r\nStars: Samuel L. Jackson,  Vanessa Williams,  Christian Bale and more\r\n\r\nSee imdb right here : \nhttp://www.imdb.com/title/tt0162650/\r\n\r\nSource : BD50 Import\r\n\r\nGeneral purpose : BDRip by Master Dubbing\r\n\r\nVideo codec : h263-single pass by reencoding mode at 16700 Kbps\r\n\r\nAudio codec : Dolby Digital plus aka E-Ac3 5.1 (custom by upmixing choice)\r\n\r\nLanguage : French only\r\n\r\nSub : US English and French\r\n\r\nQuality : Normal but somewhat grainy anyway.\r\n\r\nFinal size : 12,1 GB\r\n\r\n--------------------------------------------\r\n\r\n\r\nSee below for complete details :\r\n\r\n\r\nGeneral\r\nUnique ID                      : N/A\r\nComplete name                  : Shaft.(2000).h263.1080p[)(]DD+ 5.1-(FR).mkv\r\nFormat                         : Matroska\r\nFormat version                 : Version 4 / Version 2\r\nFile size                      : 12.1 GiB\r\nDuration                       : 1h 39mn\r\nOverall bit rate               : 17.5 Mbps\r\nEncoded date                   : UTC 2016-02-16 21:28:48 / UTC 2016-02-16 21:28:48\r\nWriting application            : Lavf57.24.101\r\nWriting library                : Lavf57.24.101 / Lavf57.24.101\r\n\r\nVideo\r\nID                             : 1\r\nFormat                         : H.263\r\nCodec ID                       : V_MS/VFW/FOURCC / H263\r\nDuration                       : 1h 39mn\r\nBit rate                       : 16.4 Mbps\r\nWidth                          : 1 920 pixels\r\nHeight                         : 1 080 pixels\r\nDisplay aspect ratio           : 16:9\r\nFrame rate mode                : Constant\r\nFrame rate                     : 23.976 (24000/1001) fps\r\nBit depth                      : 8 bits\r\nCompression mode               : Lossy\r\nBits/(Pixel*Frame)             : 0.330\r\nStream size                    : 11.4 GiB (94%)\r\nWriting library                : Lavc57.24.101 h263p\r\nLanguage                       : French\r\nDefault                        : Yes\r\nForced                         : No\r\nDURATION                       : 01:39:19.042000000\r\n\r\nAudio\r\nID                             : 2\r\nFormat                         : E-AC-3\r\nFormat/Info                    : Audio Coding 3\r\nFormat settings, Endianness    : Big\r\nCodec ID                       : A_EAC3\r\nDuration                       : 1h 39mn\r\nBit rate mode                  : Constant\r\nBit rate                       : 768 Kbps\r\nChannel(s)                     : 6 channels\r\nChannel positions              : Front: L C R, Side: L R, LFE\r\nSampling rate                  : 48.0 KHz\r\nFrame rate                     : 187.500 fps (256 spf)\r\nBit depth                      : 32 bits\r\nCompression mode               : Lossy\r\nStream size                    : 546 MiB (4%)\r\nWriting library                : Lavc57.24.101 eac3\r\nLanguage                       : French\r\nDefault                        : No\r\nForced                         : No\r\nDURATION                       : 01:39:20.032000000\r\n\r\nText #1\r\nID                             : 3\r\nFormat                         : PGS\r\nCodec ID                       : S_HDMV/PGS\r\nCodec ID/Info                  : Picture based subtitle format used on BDs/HD-DVDs\r\nLanguage                       : French\r\nDefault                        : No\r\nForced                         : No\r\nDURATION                       : 01:39:14.704000000\r\n\r\nText #2\r\nID                             : 4\r\nFormat                         : PGS\r\nCodec ID                       : S_HDMV/PGS\r\nCodec ID/Info                  : Picture based subtitle format used on BDs/HD-DVDs\r\nLanguage                       : English\r\nDefault                        : No\r\nForced                         : No\r\nDURATION                       : 01:39:14.704000000\r\n\r\nMenu\r\nChapters = 12\r\n\r\n\r\nEnjoy and seed, please, as long as you can.\r\n\r\nTy and best regards","torrent":{"xt":"urn:btih:de6f6fddca2f0466260a54625c694bb26b35d510","amp;dn":"Shaft.%282000%29.h263.1080p%5B%29%28%5DDD%2B+5.1-%28FR%29.mkv","amp;tr":["udp%3A%2F%2Ftracker.leechers-paradise.org%3A6969","udp%3A%2F%2Fzer0day.ch%3A1337","udp%3A%2F%2Fopen.demonii.com%3A1337","udp%3A%2F%2Ftracker.coppersurfer.tk%3A6969","udp%3A%2F%2Fexodus.desync.com%3A6969"],"infoHash":"de6f6fddca2f0466260a54625c694bb26b35d510","infoHashBuffer":{"type":"Buffer","data":[222,111,111,221,202,47,4,102,38,10,84,98,92,105,75,178,107,53,213,16]},"announce":[],"urlList":[]}}